<svg width="371" height="371" viewBox="0 0 512 512" fill="none" xmlns="http://www.w3.org/2000/svg">
  <defs>
    <linearGradient id="bg" x1="0" y1="0" x2="512" y2="512" gradientUnits="userSpaceOnUse">
      <stop offset="0" stop-color="#08292C"/>
      <stop offset="1" stop-color="#0D4E58"/>
    </linearGradient>
  </defs>
  <rect width="512" height="512" rx="104" fill="url(#bg)"/>
  <circle cx="256" cy="256" r="160" stroke="#39D8EE" stroke-width="18" stroke-linecap="round" stroke-dasharray="430 160" transform="rotate(-10 256 256)"/>
  <path d="M84 326H152C166 326 176 334 181 348L193 373C198 386 215 387 220 375L262 214C267 198 289 198 294 214L331 360C335 375 356 376 362 362L375 334C380 324 390 318 401 318H428" stroke="#F1F7EC" stroke-width="36" stroke-linecap="round" stroke-linejoin="round"/>
  <path d="M118 430L162 430" stroke="#39D8EE" stroke-width="22" stroke-linecap="round"/>
  <path d="M350 430L394 430" stroke="#39D8EE" stroke-width="22" stroke-linecap="round"/>
  <path d="M164 150L210 150" stroke="#39D8EE" stroke-width="22" stroke-linecap="round" opacity="0.85"/>
  <path d="M312 150L358 150" stroke="#39D8EE" stroke-width="22" stroke-linecap="round" opacity="0.85"/>
  <path d="M335 196H428C444 196 457 209 457 225V274C457 290 444 303 428 303H335C319 303 306 290 306 274V225C306 209 319 196 335 196Z" stroke="#FFD34D" stroke-width="14" stroke-linejoin="round"/>
  <path d="M348 243H381" stroke="#39D8EE" stroke-width="14" stroke-linecap="round"/>
  <path d="M348 275H381" stroke="#39D8EE" stroke-width="14" stroke-linecap="round"/>
  <path d="M348 211H381" stroke="#39D8EE" stroke-width="14" stroke-linecap="round"/>
  <circle cx="401" cy="225" r="10" fill="#FFD34D"/>
  <circle cx="431" cy="225" r="10" fill="#FFD34D"/>
  <circle cx="401" cy="253" r="10" fill="#FFD34D"/>
  <circle cx="431" cy="253" r="10" fill="#FFD34D"/>
</svg>
